<?xml version="1.0" encoding="UTF-8" standalone="no"?>
<!-- Created with Inkscape (http://www.inkscape.org/) -->

<svg
   width="75.382896mm"
   height="60.432339mm"
   viewBox="0 0 75.382896 60.432339"
   version="1.1"
   id="svg1"
   xml:space="preserve"
   inkscape:version="1.3.2 (091e20e, 2023-11-25, custom)"
   sodipodi:docname="tree-bg-2-op-3.svg"
   xmlns:inkscape="http://www.inkscape.org/namespaces/inkscape"
   xmlns:sodipodi="http://sodipodi.sourceforge.net/DTD/sodipodi-0.dtd"
   xmlns="http://www.w3.org/2000/svg"
   xmlns:svg="http://www.w3.org/2000/svg"><sodipodi:namedview
     id="namedview1"
     pagecolor="#ffffff"
     bordercolor="#000000"
     borderopacity="0.25"
     inkscape:showpageshadow="2"
     inkscape:pageopacity="0.0"
     inkscape:pagecheckerboard="0"
     inkscape:deskcolor="#d1d1d1"
     inkscape:document-units="mm"
     inkscape:zoom="0.73139029"
     inkscape:cx="142.87857"
     inkscape:cy="133.30776"
     inkscape:window-width="1920"
     inkscape:window-height="1017"
     inkscape:window-x="-8"
     inkscape:window-y="-8"
     inkscape:window-maximized="1"
     inkscape:current-layer="layer1" /><defs
     id="defs1" /><g
     inkscape:label="Layer 1"
     inkscape:groupmode="layer"
     id="layer1"
     transform="translate(-67.30855,-113.21927)"><path
       style="fill:#e5e5e5;fill-opacity:1;opacity:0.104"
       d="m 98.24145,172.55098 v -1.10066 h 2.83633 2.83634 v -9.18634 c 0,-5.19027 -0.0322,-9.18633 -0.0741,-9.18633 -0.4108,0 -2.37957,-0.42394 -3.16523,-0.68158 -4.25438,-1.39512 -7.49587,-4.55484 -11.20025,-10.91775 -0.50154,-0.86149 -1.0772,-1.78237 -1.27925,-2.0464 -1.16709,-1.52515 -3.36385,-2.65654 -5.9883,-3.08417 l -0.89891,-0.14646 -6.1e-4,-0.51532 c -3.3e-4,-0.28343 -0.0255,-0.7786 -0.0558,-1.10039 l -0.0552,-0.58506 0.6584,0.0556 c 0.36211,0.0306 1.09862,0.15439 1.63668,0.27507 2.42633,0.54418 4.27497,1.49467 5.73916,2.95083 0.78957,0.78524 1.02326,1.12029 2.27723,3.26491 1.04837,1.793 2.31709,3.70247 3.13912,4.72451 2.01482,2.50504 4.18654,4.14473 6.59374,4.97842 0.45727,0.15837 2.42413,0.62641 2.63237,0.62641 0.0225,0 0.041,-4.85775 0.041,-10.795 v -10.795 h 1.10066 1.10067 v 10.79883 10.79884 l 0.3175,-0.0588 c 0.93236,-0.17266 2.29512,-0.56226 2.95548,-0.84494 3.43025,-1.4684 6.07877,-4.26482 9.21501,-9.7296 1.21956,-2.12503 1.93376,-2.99821 3.23437,-3.95432 1.53575,-1.12897 4.17617,-2.0715 6.26981,-2.23808 l 0.6985,-0.0556 v 1.10342 1.10341 l -0.6985,0.0994 c -2.3448,0.33364 -4.23954,1.17008 -5.61915,2.48057 -0.66207,0.6289 -0.84049,0.88717 -2.14998,3.11218 -1.7417,2.9594 -3.0067,4.68943 -4.69283,6.41801 -1.54938,1.58838 -2.82049,2.53998 -4.49254,3.36327 -1.39404,0.6864 -2.9237,1.13299 -4.6355,1.35333 l -0.40217,0.0518 v 9.18114 9.18115 h 2.70933 2.70934 v 1.10066 1.10067 h -6.64634 -6.64633 z m -8.08206,-1.48471 c -0.93593,-0.56485 -1.54006,-1.51267 -1.62728,-2.553 -0.0499,-0.59562 0.0753,-1.57928 0.25388,-1.99343 l 0.0998,-0.23148 0.381,0.18915 c 0.6028,0.29925 1.29615,1.03891 1.51023,1.61111 0.24395,0.65199 0.24997,1.69157 0.0142,2.44261 -0.24065,0.76646 -0.24384,0.76917 -0.63177,0.53504 z m 29.2233,-0.19104 c -0.22229,-0.55556 -0.33963,-1.35184 -0.28517,-1.9351 0.0974,-1.04341 0.68676,-1.91296 1.64483,-2.42697 l 0.44391,-0.23816 0.0894,0.23503 c 0.33752,0.88776 0.32938,2.32834 -0.0174,3.08148 -0.11891,0.25824 -0.33808,0.60834 -0.48703,0.77798 -0.28882,0.32896 -0.98534,0.82683 -1.15671,0.82683 -0.0568,0 -0.1611,-0.14449 -0.23177,-0.32109 z m -41.92629,-3.8782 c 0.0903,-0.65557 0.2093,-1.05141 0.47302,-1.57384 0.31786,-0.62968 0.74167,-1.04618 1.36404,-1.34051 0.59874,-0.28316 1.48862,-0.41701 1.60032,-0.24071 0.1129,0.1782 0.0818,1.26277 -0.0466,1.62258 -0.37967,1.06443 -1.4612,1.78011 -2.86937,1.89876 l -0.57862,0.0488 z m 53.91094,0.25846 c -0.97166,-0.26164 -1.65258,-0.78132 -2.02954,-1.54891 -0.19902,-0.40529 -0.23535,-0.58599 -0.23535,-1.17071 0,-0.38029 0.029,-0.72043 0.0644,-0.75587 0.0354,-0.0354 0.35458,-0.0193 0.7092,0.0358 1.07813,0.16761 1.79593,0.67898 2.27212,1.6187 0.24986,0.49308 0.46793,1.27285 0.46793,1.67325 0,0.27664 -0.003,0.27851 -0.40217,0.27297 -0.22119,-0.003 -0.60217,-0.0594 -0.84661,-0.12525 z m -33.1865,-0.85988 c -0.22136,-0.0428 -0.61721,-0.48521 -0.61561,-0.68796 6.1e-4,-0.0779 0.0763,-0.50362 0.16822,-0.946 0.49519,-2.38349 -0.22875,-4.31187 -2.20358,-5.86969 -0.3644,-0.28745 -0.79118,-0.59126 -0.94839,-0.67512 l -0.28585,-0.15247 -0.88459,0.53955 c -2.41297,1.4718 -7.13508,3.61773 -7.96081,3.61773 -0.59905,0 -0.98692,-0.80445 -0.60728,-1.25951 0.0817,-0.0979 0.75597,-0.42053 1.50283,-0.71903 2.43863,-0.97466 6.02938,-2.73228 6.11662,-2.99398 0.0311,-0.0933 -1.63366,-0.66785 -2.76213,-0.95326 -3.00641,-0.76037 -6.3325,-1.15158 -10.57618,-1.24396 l -2.48036,-0.054 -0.20781,-0.24696 c -0.39257,-0.46655 -0.1632,-1.1517 0.43591,-1.30206 0.26658,-0.0669 4.74947,0.0202 5.4367,0.10569 l 0.45008,0.056 -1.05524,-1.59996 c -1.72402,-2.61397 -2.34259,-3.66858 -2.34259,-3.99394 0,-0.64488 0.83053,-1.02322 1.29627,-0.59051 0.11277,0.10477 0.50421,0.6858 0.86987,1.29117 0.69724,1.15432 2.84324,4.39398 3.1932,4.82054 0.19482,0.23746 0.2658,0.25739 1.59212,0.44702 5.02894,0.719 8.9181,2.26195 11.04501,4.38187 1.54766,1.54258 2.24293,3.31413 2.12763,5.42123 -0.0507,0.9257 -0.26551,2.00919 -0.45612,2.30009 -0.0928,0.14165 -0.60378,0.42025 -0.65178,0.35538 -0.005,-0.006 -0.093,-0.0279 -0.19614,-0.0478 z m 13.3003,-0.005 c -0.5385,-0.0869 -0.87531,-1.25152 -0.87724,-3.03331 -0.002,-1.54748 0.34164,-2.68863 1.18055,-3.92398 1.79939,-2.64972 6.28249,-4.67968 12.06867,-5.46473 0.5588,-0.0758 1.09837,-0.15472 1.19904,-0.17533 0.19343,-0.0396 2.0473,-2.72847 3.41194,-4.94867 0.77076,-1.25398 1.08073,-1.60867 1.40589,-1.60867 0.56475,0 0.99088,0.55311 0.80427,1.04393 -0.1132,0.29774 -1.41459,2.38708 -2.46675,3.96028 -0.46951,0.70202 -0.84106,1.28901 -0.82566,1.30441 0.0154,0.0154 0.74298,-0.01 1.61684,-0.0556 0.87387,-0.046 2.22011,-0.0716 2.99166,-0.0568 l 1.40282,0.0268 0.20414,0.23755 c 0.28182,0.32796 0.28015,0.83713 -0.004,1.12096 -0.20461,0.20461 -0.23043,0.20783 -1.67217,0.20801 -3.92064,5e-4 -8.24285,0.45948 -11.22794,1.1923 -1.11564,0.27388 -2.95158,0.86315 -3.07558,0.98715 -0.18619,0.1862 4.33455,2.39892 6.70084,3.27978 0.34925,0.13001 0.71686,0.31039 0.81691,0.40084 0.23689,0.21415 0.29619,0.55011 0.15623,0.88507 -0.23394,0.5599 -0.64997,0.58192 -1.88968,0.10003 -2.24549,-0.87285 -4.91089,-2.15783 -6.65676,-3.2092 l -0.99446,-0.59887 -0.44408,0.26914 c -1.46304,0.8867 -2.60733,2.32061 -2.96934,3.72091 -0.18024,0.69716 -0.18283,1.9729 -0.006,2.73728 0.17251,0.74385 0.16857,1.09593 -0.0148,1.3185 -0.16167,0.19628 -0.55214,0.32808 -0.83614,0.28224 z m -42.55278,-22.7057 c -0.42938,-0.16786 -1.08223,-0.61612 -1.41453,-0.97126 l -0.20528,-0.21939 0.25518,-0.31747 c 0.52683,-0.65542 1.41342,-0.91188 2.42583,-0.7017 0.53015,0.11006 1.64011,0.63469 2.04756,0.96779 l 0.254,0.20766 -0.29634,0.30761 c -0.16298,0.16918 -0.55863,0.43883 -0.87921,0.59922 -0.5049,0.2526 -0.66347,0.29108 -1.18533,0.28765 -0.37606,-0.002 -0.75256,-0.0626 -1.00188,-0.16011 z m 70.35912,0.0497 c -0.40643,-0.1516 -1.07967,-0.58496 -1.34116,-0.8633 l -0.20569,-0.21895 0.20906,-0.1577 c 1.13509,-0.85619 2.48416,-1.25323 3.46158,-1.01876 0.30729,0.0737 0.55776,0.21529 0.85717,0.48448 0.23265,0.20918 0.42301,0.42873 0.42301,0.48789 0,0.17532 -0.78858,0.86028 -1.27993,1.11174 -0.55048,0.28173 -1.60453,0.36838 -2.12404,0.1746 z m -63.40252,-0.52537 c -0.14267,-0.15187 -0.20333,-0.31462 -0.20333,-0.54556 0,-0.23094 0.0607,-0.39369 0.20333,-0.54556 l 0.20334,-0.21647 h 3.54528 3.54529 l 0.20762,0.22403 c 0.14278,0.15406 0.20762,0.32208 0.20762,0.53797 0,0.21589 -0.0648,0.38391 -0.20762,0.53797 l -0.20762,0.22403 H 79.63358 76.0883 Z m 50.80001,0 c -0.14268,-0.15187 -0.20334,-0.31462 -0.20334,-0.54556 0,-0.23094 0.0607,-0.39369 0.20334,-0.54556 l 0.20333,-0.21647 h 3.54528 3.54529 l 0.20762,0.22403 c 0.14278,0.15406 0.20763,0.32208 0.20763,0.53797 0,0.21589 -0.0649,0.38391 -0.20763,0.53797 l -0.20762,0.22403 h -3.54529 -3.54528 z m -28.60168,-2.89509 c -0.20527,-0.19468 -0.28325,-0.39934 -0.47587,-1.24883 -0.30279,-1.33546 -1.00568,-3.45707 -1.59533,-4.81541 -1.03513,-2.38457 -2.27,-4.3259 -4.30921,-6.7745 l -0.20369,-0.24458 -1.26437,0.30491 c -2.08288,0.50229 -3.88146,0.75062 -6.27962,0.867 -1.35228,0.0656 -1.64084,0.004 -1.84674,-0.39414 -0.17706,-0.3424 -0.15198,-0.62649 0.079,-0.89503 0.20178,-0.23458 0.20394,-0.23497 1.8967,-0.33812 0.93207,-0.0568 2.16514,-0.16622 2.74015,-0.24317 1.10546,-0.14795 3.00002,-0.5199 3.1902,-0.62633 0.0801,-0.0448 -0.0677,-0.22342 -0.5079,-0.61399 -1.3867,-1.23022 -2.88964,-2.29765 -4.32659,-3.07287 -0.40834,-0.22029 -0.77981,-0.47038 -0.8255,-0.55575 -0.1614,-0.30158 -0.0966,-0.72236 0.14895,-0.96796 0.20122,-0.20122 0.28354,-0.22708 0.61996,-0.19475 0.6381,0.0613 2.56392,1.21576 4.39735,2.63602 1.1313,0.87637 3.3877,3.12856 4.31214,4.30409 0.3919,0.49835 0.74325,0.88712 0.78077,0.86393 0.25618,-0.15833 1.01034,-3.44416 1.17032,-5.09905 0.0984,-1.01742 0.1706,-1.21916 0.48835,-1.36394 0.46046,-0.2098 0.90416,-0.0614 1.07791,0.36062 0.32247,0.78316 -0.43131,4.78841 -1.3163,6.99427 -0.18289,0.45585 -0.33253,0.84988 -0.33253,0.87562 0,0.0257 0.1728,0.33907 0.38399,0.69629 1.29581,2.19177 2.38376,4.94357 3.0545,7.72585 0.25214,1.0459 0.28084,1.26397 0.19902,1.51189 -0.17875,0.54162 -0.83863,0.70345 -1.25567,0.30793 z m 12.85165,-0.0146 c -0.32329,-0.32329 -0.31885,-0.52963 0.043,-2.00063 0.67396,-2.73981 1.73584,-5.39079 3.04912,-7.6121 l 0.38375,-0.64909 -0.16079,-0.31518 c -0.69057,-1.35361 -1.44541,-4.51071 -1.58571,-6.63218 l -0.0542,-0.81967 0.25984,-0.25983 c 0.56199,-0.562 1.37312,-0.1819 1.37391,0.64382 0.001,1.06569 0.51108,3.68137 0.99036,5.07873 l 0.23692,0.69073 0.84666,-1.06572 c 2.04477,-2.57381 4.93234,-5.02708 7.58471,-6.44396 0.93556,-0.49977 1.28862,-0.5489 1.65848,-0.23076 0.18515,0.15927 0.23563,0.27571 0.23563,0.54358 0,0.42802 -0.17722,0.63197 -0.84019,0.96691 -1.20994,0.61128 -2.7416,1.68066 -4.21732,2.94448 -0.54815,0.46945 -0.7914,0.7288 -0.71966,0.76732 0.18598,0.0999 1.7506,0.41308 2.94469,0.58945 0.62865,0.0928 1.93653,0.2145 2.90641,0.27032 1.68682,0.0971 1.77232,0.11042 1.9685,0.3066 0.27947,0.27947 0.27941,0.76387 -1.5e-4,1.08744 l -0.20524,0.23756 -1.19171,-0.0128 c -2.13867,-0.0229 -4.6178,-0.34659 -6.77981,-0.8851 l -1.05834,-0.26361 -0.41014,0.45374 c -0.22558,0.24956 -0.72595,0.87285 -1.11194,1.38508 -2.11695,2.80934 -3.57822,5.89384 -4.49238,9.48267 -0.44961,1.76508 -0.43003,1.7145 -0.72259,1.86579 -0.36922,0.19093 -0.65518,0.153 -0.93179,-0.12361 z M 76.8862,126.78405 c -1.52621,-0.36997 -2.35142,-1.33586 -2.35142,-2.75229 0,-0.56696 0.01,-0.59535 0.23284,-0.68217 0.33466,-0.13021 1.11593,-0.0395 1.54491,0.17932 0.88861,0.45333 1.88433,1.91524 2.00403,2.94229 l 0.0518,0.4445 -0.49862,-0.007 c -0.27425,-0.004 -0.71684,-0.0599 -0.98354,-0.1246 z m 54.79858,0.0224 c 0,-0.0601 0.0567,-0.32703 0.12608,-0.59325 0.44343,-1.70245 1.83196,-3.02148 3.0724,-2.91861 0.63662,0.0528 0.72687,0.18327 0.65985,0.95407 -0.12163,1.39905 -1.01731,2.2844 -2.6182,2.588 -0.61656,0.11693 -1.24013,0.10174 -1.24013,-0.0302 z m -27.11237,-3.57877 c -0.27267,-0.14797 -0.40429,-0.36622 -0.40429,-0.67036 0,-0.40464 -0.2659,-1.51808 -0.52027,-2.17865 -0.86257,-2.23993 -3.10535,-4.19511 -5.99402,-5.22541 -0.86449,-0.30833 -1.05953,-0.48013 -1.05953,-0.93325 0,-0.37548 0.25477,-0.71728 0.59905,-0.80369 0.2742,-0.0688 1.50282,0.34755 2.50403,0.8486 2.2128,1.10737 3.81506,2.53054 4.88614,4.34001 l 0.45596,0.77029 0.36638,-0.64291 c 0.74169,-1.30149 1.75424,-2.39614 3.12259,-3.37578 0.87318,-0.62513 2.48723,-1.45448 3.45688,-1.77626 0.56651,-0.18799 0.70496,-0.20609 0.95224,-0.12448 0.36497,0.12045 0.54388,0.37281 0.54388,0.76716 0,0.43922 -0.27442,0.67131 -1.11895,0.94634 -0.39222,0.12774 -1.04292,0.40052 -1.446,0.6062 -2.95392,1.50727 -4.57954,3.62841 -4.96889,6.4835 -0.0738,0.54102 -0.12436,0.66947 -0.34172,0.86784 -0.28963,0.26434 -0.66476,0.30095 -1.03348,0.10085 z m -13.40514,-5.43863 c -0.45583,-0.33057 -0.84079,-0.78473 -1.11182,-1.31168 -0.32404,-0.63001 -0.37588,-1.74856 -0.12007,-2.59075 0.0992,-0.32653 0.21739,-0.6166 0.26268,-0.64459 0.12577,-0.0777 0.79938,0.35038 1.1339,0.72064 0.50787,0.56215 0.67009,0.97065 0.71172,1.79216 0.0374,0.73844 -0.13115,1.54962 -0.4329,2.08319 l -0.10935,0.19337 z m 27.15125,-0.25022 c -0.69513,-1.89157 -0.23161,-3.45741 1.24563,-4.20787 0.15567,-0.0791 0.29955,-0.12727 0.31973,-0.10709 0.0202,0.0202 0.11825,0.26112 0.21792,0.53541 0.1345,0.37013 0.18304,0.70653 0.18827,1.30471 0.007,0.74754 -0.0129,0.84577 -0.26819,1.35466 -0.15138,0.30177 -0.36144,0.64393 -0.46679,0.76034 -0.24996,0.27621 -0.92276,0.84667 -0.99856,0.84667 -0.0325,0 -0.13961,-0.21907 -0.23801,-0.48683 z"
       id="path1" /></g></svg>
